<?xml version="1.0" encoding="UTF-8"?>
<svg id="Layer_1" data-name="Layer 1" xmlns="http://www.w3.org/2000/svg" viewBox="0 0 197.73 1.01">
  <defs>
    <style>
      .cls-1 {
        fill: #ffeb65;
        stroke-width: 0px;
      }
    </style>
  </defs>
  <rect class="cls-1" x="-5.36" width="202.84" height="1.01"/>
  <path class="cls-1" d="m197.48,0v1.01c3.44,0,6.22,2.79,6.22,6.22h1.01C204.71,3.24,201.47,0,197.48,0Z"/>
  <path class="cls-1" d="m212.34,205.91c0,1.49-1.2,2.69-2.69,2.69s-2.69-1.21-2.69-2.69,1.2-2.69,2.69-2.69,2.69,1.2,2.69,2.69Zm-2.19-111.52v111.52h-1.01v-111.52m0,0V7.23h1.01v87.17M202.92,1H.08V0h202.84v1.01h0ZM-6.14,7.23v85.11h-1.01V7.23h1.01ZM.08,1c-3.44,0-6.22,2.79-6.22,6.22h-1.01c0-3.99,3.23-7.22,7.23-7.22v1.01H.08Zm209.07,6.22c0-3.44-2.79-6.22-6.22-6.22V0c3.99,0,7.23,3.24,7.23,7.23h-1.01Z"/>
</svg>