<?xml version="1.0" encoding="UTF-8"?>
<svg width="100%" height="100%" id="Layer_1" data-name="Layer 1" xmlns="http://www.w3.org/2000/svg" xmlns:xlink="http://www.w3.org/1999/xlink" viewBox="0 0 228 99.78">
  <defs>
    <style>
      .cls-1 {
        opacity: .15;
      }

      .cls-1, .cls-2, .cls-3, .cls-4, .cls-5, .cls-6, .cls-7, .cls-8 {
        stroke-width: 0px;
      }

      .cls-1, .cls-2, .cls-3, .cls-4, .cls-7, .cls-8 {
        fill: #ffeb74;
      }

      .cls-1, .cls-2, .cls-3, .cls-4, .cls-8 {
        isolation: isolate;
      }

      .cls-2 {
        opacity: .34;
      }

      .cls-9 {
        clip-path: url(#clippath-2);
      }

      .cls-3 {
        opacity: .4;
      }

      .cls-4 {
        opacity: .64;
      }

      .cls-5 {
        fill: none;
      }

      .cls-6 {
        fill: #ffeb65;
      }

      .cls-10 {
        clip-path: url(#clippath-1);
      }

      .cls-11 {
        clip-path: url(#clippath);
      }

      .cls-12 {
        clip-path: url(#clippath-3);
      }

      .cls-8 {
        opacity: .22;
      }
    </style>
    <clipPath id="clippath">
      <polygon class="cls-5" points="8.49 94.38 3.44 94.41 3 40.79 8.05 40.76 8.49 94.38"/>
    </clipPath>
    <clipPath id="clippath-1">
      <polygon class="cls-5" points="8.49 75.36 3.44 75.39 3 21.76 8.05 21.73 8.49 75.36"/>
    </clipPath>
    <clipPath id="clippath-2">
      <polygon class="cls-5" points="224.79 94.38 219.74 94.41 219.3 40.79 224.35 40.76 224.79 94.38"/>
    </clipPath>
    <clipPath id="clippath-3">
      <polygon class="cls-5" points="224.79 75.36 219.74 75.39 219.3 21.76 224.35 21.73 224.79 75.36"/>
    </clipPath>
  </defs>
  <g class="cls-11">
    <g>
      <path class="cls-7" d="m8.05,40.76l-5.05.03.05,6.13,5.05-.03-.05-6.13Z"/>
      <path class="cls-4" d="m8.13,50.26l-5.05.03.05,6.13,5.05-.03-.05-6.13Z"/>
      <path class="cls-3" d="m8.2,59.75l-5.05.03.05,6.13,5.05-.03-.05-6.13Z"/>
      <path class="cls-2" d="m8.28,69.25l-5.05.03.05,6.13,5.05-.03-.05-6.13Z"/>
      <path class="cls-8" d="m8.36,78.75l-5.05.03.05,6.13,5.05-.03-.05-6.13Z"/>
      <path class="cls-1" d="m8.44,88.25l-5.05.03.05,6.13,5.05-.03-.05-6.13Z"/>
    </g>
  </g>
  <g class="cls-10">
    <g>
      <path class="cls-7" d="m8.05,21.74l-5.05.03.05,6.13,5.05-.03-.05-6.13Z"/>
      <path class="cls-4" d="m8.13,31.23l-5.05.03.05,6.14,5.05-.03-.05-6.13Z"/>
      <path class="cls-3" d="m8.2,40.72l-5.05.03.05,6.13,5.05-.03-.05-6.13Z"/>
      <path class="cls-2" d="m8.28,50.23l-5.05.03.05,6.14,5.05-.03-.05-6.13Z"/>
      <path class="cls-8" d="m8.36,59.72l-5.05.03.05,6.13,5.05-.03-.05-6.14Z"/>
      <path class="cls-1" d="m8.44,69.22l-5.05.03.05,6.13,5.05-.03-.05-6.13Z"/>
    </g>
  </g>
  <g class="cls-9">
    <g>
      <path class="cls-7" d="m224.34,40.76l-5.05.03.05,6.13,5.05-.03-.05-6.13Z"/>
      <path class="cls-4" d="m224.42,50.26l-5.05.03.05,6.13,5.05-.03-.05-6.13Z"/>
      <path class="cls-3" d="m224.5,59.75l-5.05.03.05,6.13,5.05-.03-.05-6.13Z"/>
      <path class="cls-2" d="m224.58,69.25l-5.05.03.05,6.13,5.05-.03-.05-6.13Z"/>
      <path class="cls-8" d="m224.66,78.75l-5.05.03.05,6.13,5.05-.03-.05-6.13Z"/>
      <path class="cls-1" d="m224.73,88.25l-5.05.03.05,6.13,5.05-.03-.05-6.13Z"/>
    </g>
  </g>
  <g class="cls-12">
    <g>
      <path class="cls-7" d="m224.34,21.74l-5.05.03.05,6.13,5.05-.03-.05-6.13Z"/>
      <path class="cls-4" d="m224.42,31.23l-5.05.03.05,6.14,5.05-.03-.05-6.13Z"/>
      <path class="cls-3" d="m224.5,40.72l-5.05.03.05,6.13,5.05-.03-.05-6.13Z"/>
      <path class="cls-2" d="m224.58,50.23l-5.05.03.05,6.14,5.05-.03-.05-6.13Z"/>
      <path class="cls-8" d="m224.66,59.72l-5.05.03.05,6.13,5.05-.03-.05-6.14Z"/>
      <path class="cls-1" d="m224.73,69.22l-5.05.03.05,6.13,5.05-.03-.05-6.13Z"/>
    </g>
  </g>
  <path class="cls-6" d="m2.5-.72V.05C2.66.02,2.83,0,3,0s.34.02.5.05v-.77h-1.01Z"/>
  <path class="cls-6" d="m3.51.05v2.64h-1.01V.05C1.25.29.31,1.38.31,2.69c0,1.49,1.2,2.69,2.69,2.69s2.69-1.21,2.69-2.69C5.69,1.38,4.75.29,3.51.05Z"/>
  <path class="cls-6" d="m2.5.05v2.64h1.01V.05C3.34.02,3.17,0,3,0s-.34.02-.5.05Z"/>
  <path class="cls-6" d="m227.43,2.69c0,1.49-1.2,2.69-2.69,2.69s-2.69-1.21-2.69-2.69S223.25,0,224.74,0s2.69,1.2,2.69,2.69Zm-2.19-111.52V2.69h-1.01v-111.52m0,0v-87.17h1.01v87.17m-7.23-93.39H15.17v-1.01h202.84v1.01Zm-209.07,6.22v85.11h-1.01v-85.11h1.01Zm6.22-6.22c-3.44,0-6.22,2.79-6.22,6.22h-1.01c0-3.99,3.24-7.23,7.23-7.23v1.01Zm209.07,6.22c0-3.44-2.79-6.22-6.22-6.22v-1.01c3.99,0,7.23,3.24,7.23,7.23h-1.01Z"/>
  <path class="cls-6" d="m227.43-106.14c0-1.49-1.21-2.69-2.69-2.69s-2.69,1.2-2.69,2.69,1.2,2.69,2.69,2.69,2.69-1.2,2.69-2.69ZM225.24.05v-106.19h-1.01V.05m0,0v92.5h1.01V.05m-7.23,98.72H15.17s0,1.01,0,1.01h202.84v-1.01Zm-209.07-6.22V7.44s-1.01,0-1.01,0v85.11s1.01,0,1.01,0Zm6.22,6.22c-3.44,0-6.22-2.79-6.22-6.22h-1.01c0,3.99,3.24,7.23,7.23,7.23v-1.01Zm209.07-6.22c0,3.44-2.79,6.22-6.22,6.22v1.01c3.99,0,7.23-3.24,7.23-7.23h-1.01Z"/>
  <path class="cls-6" d="m.31-106.14c0-1.49,1.2-2.69,2.69-2.69s2.69,1.2,2.69,2.69-1.2,2.69-2.69,2.69-2.69-1.2-2.69-2.69ZM3.51.05v92.5h-1.01V0m1.01-3.96V.05m0-103.5V-3.96m-1.01-99.49v-2.69h1.01v2.69M2.5,0v-103.45m7.23,202.22h202.84v1.01H9.73v-1.01Zm209.07-6.22V7.44h1.01v85.11h-1.01Zm-6.22,6.22c3.44,0,6.22-2.79,6.22-6.22h1.01c0,3.99-3.24,7.23-7.23,7.23v-1.01ZM3.51,92.55c0,3.44,2.79,6.22,6.22,6.22v1.01c-3.99,0-7.23-3.24-7.23-7.23h1.01Z"/>
</svg>