<svg width="106" height="106" viewBox="0 0 106 106" fill="none" xmlns="http://www.w3.org/2000/svg">
<path d="M53 0C60.0282 0 66.7686 2.79196 71.7383 7.76167C76.708 12.7314 79.5 19.4718 79.5 26.5C79.5 33.5282 76.708 40.2686 71.7383 45.2383C66.7686 50.208 60.0282 53 53 53C45.9718 53 39.2314 50.208 34.2617 45.2383C29.292 40.2686 26.5 33.5282 26.5 26.5C26.5 19.4718 29.292 12.7314 34.2617 7.76167C39.2314 2.79196 45.9718 0 53 0ZM53 66.25C82.2825 66.25 106 78.1087 106 92.75V106H0V92.75C0 78.1087 23.7175 66.25 53 66.25Z" fill="white"/>
</svg>
