<svg width="134" height="107" viewBox="0 0 134 107" fill="none" xmlns="http://www.w3.org/2000/svg">
<path d="M60.3315 55.0806C64.6373 47.3078 72.9134 42.7224 77.7224 35.8443C82.8111 28.6307 79.9592 15.1542 65.532 15.1542C56.0816 15.1542 51.4403 22.3118 49.4831 28.2393L35 22.1441C38.9703 10.2332 49.7627 0 65.4761 0C78.6171 0 87.6202 5.98337 92.2055 13.4766C96.1199 19.9073 98.4126 31.93 92.3733 40.8771C85.663 50.7748 79.2322 53.7945 75.7652 60.1693C74.3673 62.7416 73.8081 64.4192 73.8081 72.6952H57.6474C57.5914 68.3335 56.9204 61.2317 60.3315 55.0806ZM76.7159 95.063C76.7159 101.214 71.6831 106.247 65.532 106.247C59.3809 106.247 54.3481 101.214 54.3481 95.063C54.3481 88.9118 59.3809 83.8791 65.532 83.8791C71.6831 83.8791 76.7159 88.9118 76.7159 95.063Z" fill="white"/>
<path d="M15.3455 75.1789C17.9539 70.4968 22.9674 67.7347 25.8807 63.5916C28.9633 59.2463 27.2357 51.1284 18.4959 51.1284C12.771 51.1284 9.95932 55.44 8.77369 59.0105L0 55.3389C2.40514 48.1642 8.94306 42 18.462 42C26.4227 42 31.8766 45.6042 34.6544 50.1179C37.0256 53.9916 38.4145 61.2337 34.756 66.6232C30.691 72.5853 26.7953 74.4042 24.6951 78.2442C23.8482 79.7937 23.5094 80.8042 23.5094 85.7895H13.7195C13.6856 83.1621 13.2791 78.8842 15.3455 75.1789ZM25.2709 99.2632C25.2709 102.968 22.2222 106 18.4959 106C14.7696 106 11.7208 102.968 11.7208 99.2632C11.7208 95.5579 14.7696 92.5263 18.4959 92.5263C22.2222 92.5263 25.2709 95.5579 25.2709 99.2632Z" fill="white"/>
<path d="M112.345 75.1789C114.954 70.4968 119.967 67.7347 122.881 63.5916C125.963 59.2463 124.236 51.1284 115.496 51.1284C109.771 51.1284 106.959 55.44 105.774 59.0105L97 55.3389C99.4051 48.1642 105.943 42 115.462 42C123.423 42 128.877 45.6042 131.654 50.1179C134.026 53.9916 135.415 61.2337 131.756 66.6232C127.691 72.5853 123.795 74.4042 121.695 78.2442C120.848 79.7937 120.509 80.8042 120.509 85.7895H110.719C110.686 83.1621 110.279 78.8842 112.345 75.1789ZM122.271 99.2632C122.271 102.968 119.222 106 115.496 106C111.77 106 108.721 102.968 108.721 99.2632C108.721 95.5579 111.77 92.5263 115.496 92.5263C119.222 92.5263 122.271 95.5579 122.271 99.2632Z" fill="white"/>
</svg>
