<svg width="150" height="150" viewBox="0 0 150 150" fill="none" xmlns="http://www.w3.org/2000/svg">
<path d="M135.938 63.2812C137.802 63.2812 139.591 62.5405 140.909 61.2218C142.228 59.9032 142.969 58.1148 142.969 56.25V37.5C142.969 34.392 141.734 31.4113 139.536 29.2136C137.339 27.0159 134.358 25.7813 131.25 25.7812H18.75C15.642 25.7813 12.6613 27.0159 10.4636 29.2136C8.2659 31.4113 7.03125 34.392 7.03125 37.5V56.25C7.03125 58.1148 7.77204 59.9032 9.09066 61.2218C10.4093 62.5405 12.1977 63.2812 14.0625 63.2812C17.1705 63.2812 20.1512 64.5159 22.3489 66.7136C24.5466 68.9113 25.7812 71.892 25.7812 75C25.7812 78.108 24.5466 81.0887 22.3489 83.2864C20.1512 85.4841 17.1705 86.7188 14.0625 86.7188C12.1977 86.7188 10.4093 87.4595 9.09066 88.7782C7.77204 90.0968 7.03125 91.8852 7.03125 93.75V112.5C7.03125 115.608 8.2659 118.589 10.4636 120.786C12.6613 122.984 15.642 124.219 18.75 124.219H131.25C134.358 124.219 137.339 122.984 139.536 120.786C141.734 118.589 142.969 115.608 142.969 112.5V93.75C142.969 91.8852 142.228 90.0968 140.909 88.7782C139.591 87.4595 137.802 86.7188 135.938 86.7188C132.829 86.7188 129.849 85.4841 127.651 83.2864C125.453 81.0887 124.219 78.108 124.219 75C124.219 71.892 125.453 68.9113 127.651 66.7136C129.849 64.5159 132.829 63.2812 135.938 63.2812ZM21.0938 99.8086C26.4965 98.2809 31.2529 95.0313 34.6402 90.5535C38.0274 86.0757 39.8603 80.6146 39.8603 75C39.8603 69.3854 38.0274 63.9243 34.6402 59.4465C31.2529 54.9687 26.4965 51.7191 21.0938 50.1914V39.8438H51.5625V110.156H21.0938V99.8086ZM128.906 99.8086V110.156H65.625V39.8438H128.906V50.1914C123.503 51.7191 118.747 54.9687 115.36 59.4465C111.973 63.9243 110.14 69.3854 110.14 75C110.14 80.6146 111.973 86.0757 115.36 90.5535C118.747 95.0313 123.503 98.2809 128.906 99.8086Z" fill="white"/>
</svg>
