<svg width="87" height="109" viewBox="0 0 87 109" fill="none" xmlns="http://www.w3.org/2000/svg">
<path d="M43.5 109C30.9031 105.821 20.503 98.576 12.2996 87.2654C4.09625 75.9548 -0.0036226 63.398 2.40172e-06 49.595V16.35L43.5 0L87 16.35V49.595C87 63.4017 82.9001 75.9603 74.7004 87.2709C66.5006 98.5814 56.1005 105.824 43.5 109ZM43.5 97.555C52.2906 94.83 59.6312 89.4472 65.5219 81.4066C71.4125 73.3661 74.8563 64.3972 75.8531 54.5H43.5V11.5812L10.875 23.8438V52.0475C10.875 52.6833 10.9656 53.5008 11.1469 54.5H43.5V97.555Z" fill="white"/>
</svg>
