<svg width="160" height="160" viewBox="0 0 160 160" fill="none" xmlns="http://www.w3.org/2000/svg">
<path d="M133.333 26.666H26.6663C19.2663 26.666 13.3997 32.5993 13.3997 39.9993L13.333 119.999C13.333 127.399 19.2663 133.333 26.6663 133.333H133.333C140.733 133.333 146.666 127.399 146.666 119.999V39.9993C146.666 32.5993 140.733 26.666 133.333 26.666ZM126.666 119.999H33.333C29.6663 119.999 26.6663 116.999 26.6663 113.333V79.9993H133.333V113.333C133.333 116.999 130.333 119.999 126.666 119.999ZM133.333 53.3327H26.6663V46.666C26.6663 42.9993 29.6663 39.9993 33.333 39.9993H126.666C130.333 39.9993 133.333 42.9993 133.333 46.666V53.3327Z" fill="white"/>
</svg>
