<svg width="40" height="44" viewBox="0 0 40 44" fill="none" xmlns="http://www.w3.org/2000/svg">
<rect x="0.390625" y="0.597656" width="39.1449" height="42.873" rx="11.1843" fill="white"/>
<path d="M27.8333 25.6707C26.7778 25.6707 25.8333 26.0472 25.1111 26.637L15.2083 21.4287C15.2778 21.1401 15.3333 20.8514 15.3333 20.5502C15.3333 20.249 15.2778 19.9603 15.2083 19.6717L25 14.5136C25.75 15.1411 26.7361 15.5301 27.8333 15.5301C30.1389 15.5301 32 13.8484 32 11.7651C32 9.68173 30.1389 8 27.8333 8C25.5278 8 23.6667 9.68173 23.6667 11.7651C23.6667 12.0663 23.7222 12.3549 23.7917 12.6436L14 17.8017C13.25 17.1742 12.2639 16.7851 11.1667 16.7851C8.86111 16.7851 7 18.4669 7 20.5502C7 22.6335 8.86111 24.3153 11.1667 24.3153C12.2639 24.3153 13.25 23.9262 14 23.2987L23.8889 28.5196C23.8194 28.7831 23.7778 29.0592 23.7778 29.3353C23.7778 31.3559 25.5972 33 27.8333 33C30.0694 33 31.8889 31.3559 31.8889 29.3353C31.8889 27.3148 30.0694 25.6707 27.8333 25.6707Z" fill="#333333"/>
</svg>
