<?xml version="1.0" encoding="UTF-8"?>
<svg id="Layer_2" data-name="Layer 2" xmlns="http://www.w3.org/2000/svg" xmlns:xlink="http://www.w3.org/1999/xlink" width="13.1px" height="87.9px"  viewBox="0 0 13.1 87.9">
  <defs>
    <style>
      .cls-1, .cls-2, .cls-3, .cls-4, .cls-5 {
        fill: #ffeb74;
      }

      .cls-6 {
        fill: none;
      }

      .cls-7 {
        clip-path: url(#clippath-1);
      }

      .cls-2 {
        opacity: .3;
      }

      .cls-2, .cls-3, .cls-4, .cls-5 {
        isolation: isolate;
      }

      .cls-3 {
        opacity: .2;
      }

      .cls-8 {
        fill: #ffeb65;
      }

      .cls-4 {
        opacity: .6;
      }

      .cls-5 {
        opacity: .4;
      }

      .cls-9 {
        clip-path: url(#clippath);
      }
    </style>
    <clipPath id="clippath">
      <polygon class="cls-6" points="7.2 72.8 2.7 72.8 2.3 25.7 6.8 25.6 7.2 72.8"/>
    </clipPath>
    <clipPath id="clippath-1">
      <polygon class="cls-6" points="7.2 56.1 2.7 56.1 2.3 8.9 6.8 8.9 7.2 56.1"/>
    </clipPath>
  </defs>
  <g id="Layer_1-2">
    <g class="cls-9">
      <g>
        <path class="cls-1" d="M6.8,25.6H2.3v5.4h4.4v-5.4h.1Z"/>
        <path class="cls-4" d="M6.8,34H2.4v5.4h4.4s0-5.4,0-5.4Z"/>
        <path class="cls-5" d="M6.9,42.3H2.5v5.4h4.4v-5.4Z"/>
        <path class="cls-2" d="M7,50.7H2.5v5.4h4.4v-5.4h.1Z"/>
        <path class="cls-3" d="M7,59.1H2.6v5.4h4.4v-5.4Z"/>
        <path class="cls-3" d="M7.1,67.4H2.7v5.4h4.4v-5.4Z"/>
      </g>
    </g>
    <g class="cls-7">
      <g>
        <path class="cls-1" d="M6.8,8.9H2.3v5.4h4.4v-5.4h.1Z"/>
        <path class="cls-4" d="M6.8,17.2H2.4v5.4h4.4s0-5.4,0-5.4Z"/>
        <path class="cls-5" d="M6.9,25.6H2.5v5.4h4.4v-5.4Z"/>
        <path class="cls-2" d="M7,34H2.5v5.4h4.4v-5.4h.1Z"/>
        <path class="cls-3" d="M7,42.3H2.6v5.4h4.4v-5.4Z"/>
        <path class="cls-3" d="M7.1,50.7H2.7v5.4h4.4v-5.4Z"/>
      </g>
    </g>
    <rect class="cls-8" x="1.9" y="6.4" width=".9" height="79.1"/>
    <path class="cls-8" d="M8.3,0v.9C5.3.9,2.8,3.4,2.8,6.4h-.9C1.9,2.9,4.7.1,8.3,0Z"/>
    <rect class="cls-8" x="8.3" y="0" width="4.8" height=".9"/>
    <rect class="cls-8" x="6.7" y="6.4" width=".9" height="74.9"/>
    <path class="cls-8" d="M13.1.9c-3,0-5.5,2.5-5.5,5.5h-.9c0-3.5,2.8-6.4,6.4-6.4v.9Z"/>
    <path class="cls-8" d="M0,85.5c0-1.3,1.1-2.4,2.4-2.4s2.4,1.1,2.4,2.4-1.1,2.4-2.4,2.4S0,86.8,0,85.5Z"/>
  </g>
</svg>