<svg width="160" height="160" viewBox="0 0 160 160" fill="none" xmlns="http://www.w3.org/2000/svg">
<path d="M33.3333 146.666C29.6667 146.666 26.5289 145.362 23.92 142.753C21.3111 140.144 20.0044 137.004 20 133.333V103L38.3333 82.1665L47.8333 91.6665L34.5 106.666H125.5L112.5 91.9998L122 82.4998L140 103V133.333C140 137 138.696 140.14 136.087 142.753C133.478 145.366 130.338 146.671 126.667 146.666H33.3333ZM33.3333 133.333H126.667V120H33.3333V133.333ZM70.8333 95.8331L47.3333 72.3331C44.7778 69.7776 43.5289 66.6398 43.5867 62.9198C43.6444 59.1998 44.9489 56.0598 47.5 53.4998L80.1667 20.8331C82.7222 18.2776 85.8889 16.9442 89.6667 16.8331C93.4444 16.722 96.6111 17.9442 99.1667 20.4998L122.667 43.9998C125.222 46.5553 126.556 49.6665 126.667 53.3331C126.778 56.9998 125.556 60.1109 123 62.6664L89.6667 95.9998C87.1111 98.5553 83.9733 99.8064 80.2533 99.7531C76.5333 99.6998 73.3933 98.3931 70.8333 95.8331ZM113.333 53.4998L89.8333 29.9998L56.8333 62.9998L80.3333 86.4998L113.333 53.4998Z" fill="white"/>
</svg>
