<?xml version="1.0" encoding="UTF-8"?>
<svg id="Layer_1" data-name="Layer 1" xmlns="http://www.w3.org/2000/svg" viewBox="0 0 228 100.33">
  <defs>
    <style>
      .cls-1 {
        opacity: .15;
      }

      .cls-1, .cls-2, .cls-3, .cls-4, .cls-5, .cls-6, .cls-7, .cls-8 {
        stroke-width: 0px;
      }

      .cls-1, .cls-2, .cls-3, .cls-4, .cls-7, .cls-8 {
        fill: #ffeb74;
      }

      .cls-1, .cls-2, .cls-3, .cls-4, .cls-8 {
        isolation: isolate;
      }

      .cls-2 {
        opacity: .34;
      }

      .cls-9 {
        clip-path: url(#clippath-2);
      }

      .cls-3 {
        opacity: .4;
      }

      .cls-4 {
        opacity: .64;
      }

      .cls-5 {
        fill: none;
      }

      .cls-6 {
        fill: #ffeb65;
      }

      .cls-10 {
        clip-path: url(#clippath-1);
      }

      .cls-11 {
        clip-path: url(#clippath);
      }

      .cls-12 {
        clip-path: url(#clippath-3);
      }

      .cls-8 {
        opacity: .22;
      }
    </style>
    <clipPath id="clippath">
      <polygon class="cls-5" points="8.49 83.17 3.44 83.2 3 29.58 8.05 29.55 8.49 83.17"/>
    </clipPath>
    <clipPath id="clippath-1">
      <polygon class="cls-5" points="8.49 64.14 3.44 64.17 3 10.55 8.05 10.52 8.49 64.14"/>
    </clipPath>
    <clipPath id="clippath-2">
      <polygon class="cls-5" points="224.79 83.17 219.74 83.2 219.3 29.58 224.35 29.55 224.79 83.17"/>
    </clipPath>
    <clipPath id="clippath-3">
      <polygon class="cls-5" points="224.79 64.14 219.74 64.17 219.3 10.55 224.35 10.52 224.79 64.14"/>
    </clipPath>
  </defs>
  <g class="cls-11">
    <g>
      <path class="cls-7" d="m8.05,29.55l-5.05.03.05,6.13,5.05-.03-.05-6.13Z"/>
      <path class="cls-4" d="m8.13,39.04l-5.05.03.05,6.13,5.05-.03-.05-6.13Z"/>
      <path class="cls-3" d="m8.2,48.54l-5.05.03.05,6.13,5.05-.03-.05-6.13Z"/>
      <path class="cls-2" d="m8.28,58.04l-5.05.03.05,6.13,5.05-.03-.05-6.13Z"/>
      <path class="cls-8" d="m8.36,67.54l-5.05.03.05,6.13,5.05-.03-.05-6.13Z"/>
      <path class="cls-1" d="m8.44,77.03l-5.05.03.05,6.13,5.05-.03-.05-6.13Z"/>
    </g>
  </g>
  <g class="cls-10">
    <g>
      <path class="cls-7" d="m8.05,10.52l-5.05.03.05,6.13,5.05-.03-.05-6.13Z"/>
      <path class="cls-4" d="m8.13,20.02l-5.05.03.05,6.13,5.05-.03-.05-6.13Z"/>
      <path class="cls-3" d="m8.2,29.51l-5.05.03.05,6.13,5.05-.03-.05-6.13Z"/>
      <path class="cls-2" d="m8.28,39.01l-5.05.03.05,6.13,5.05-.03-.05-6.13Z"/>
      <path class="cls-8" d="m8.36,48.51l-5.05.03.05,6.13,5.05-.03-.05-6.13Z"/>
      <path class="cls-1" d="m8.44,58.01l-5.05.03.05,6.13,5.05-.03-.05-6.13Z"/>
    </g>
  </g>
  <g class="cls-9">
    <g>
      <path class="cls-7" d="m224.34,29.55l-5.05.03.05,6.13,5.05-.03-.05-6.13Z"/>
      <path class="cls-4" d="m224.42,39.04l-5.05.03.05,6.13,5.05-.03-.05-6.13Z"/>
      <path class="cls-3" d="m224.5,48.54l-5.05.03.05,6.13,5.05-.03-.05-6.13Z"/>
      <path class="cls-2" d="m224.58,58.04l-5.05.03.05,6.13,5.05-.03-.05-6.13Z"/>
      <path class="cls-8" d="m224.66,67.54l-5.05.03.05,6.13,5.05-.03-.05-6.13Z"/>
      <path class="cls-1" d="m224.73,77.03l-5.05.03.05,6.13,5.05-.03-.05-6.13Z"/>
    </g>
  </g>
  <g class="cls-12">
    <g>
      <path class="cls-7" d="m224.34,10.52l-5.05.03.05,6.13,5.05-.03-.05-6.13Z"/>
      <path class="cls-4" d="m224.42,20.02l-5.05.03.05,6.13,5.05-.03-.05-6.13Z"/>
      <path class="cls-3" d="m224.5,29.51l-5.05.03.05,6.13,5.05-.03-.05-6.13Z"/>
      <path class="cls-2" d="m224.58,39.01l-5.05.03.05,6.13,5.05-.03-.05-6.13Z"/>
      <path class="cls-8" d="m224.66,48.51l-5.05.03.05,6.13,5.05-.03-.05-6.13Z"/>
      <path class="cls-1" d="m224.73,58.01l-5.05.03.05,6.13,5.05-.03-.05-6.13Z"/>
    </g>
  </g>
  <path class="cls-6" d="m2.5,101h1.01v-6.06h-1.01v6.06Z"/>
  <rect class="cls-6" x="9.73" y=".5" width="202.84" height="1.01"/>
  <path class="cls-6" d="m212.57.5v1.01c3.44,0,6.22,2.79,6.22,6.22h1.01c0-3.99-3.24-7.23-7.23-7.23Z"/>
  <rect class="cls-6" x="218.79" y="7.73" width="1.01" height="85.11"/>
  <rect class="cls-6" x="2.5" y="7.73" width="1.01" height="87.22"/>
  <path class="cls-6" d="m2.5,7.73h1.01c0-3.44,2.79-6.22,6.22-6.22V.5C5.73.5,2.5,3.73,2.5,7.73Z"/>
  <path class="cls-6" d="m227.43,206.41c0,1.49-1.2,2.69-2.69,2.69s-2.69-1.21-2.69-2.69,1.2-2.69,2.69-2.69,2.69,1.2,2.69,2.69Zm-2.19-111.52v111.52h-1.01v-111.52m0,0V7.73h1.01v87.17M218.01,1.5H15.17V.5h202.84v1.01ZM8.95,7.73v85.11h-1.01V7.73h1.01ZM15.17,1.5c-3.44,0-6.22,2.79-6.22,6.22h-1.01C7.94,3.73,11.17.5,15.17.5v1.01Zm209.07,6.22c0-3.44-2.79-6.22-6.22-6.22V.5c3.99,0,7.23,3.24,7.23,7.23h-1.01Z"/>
  <path class="cls-6" d="m227.43,97.59c0-1.49-1.21-2.69-2.69-2.69s-2.69,1.2-2.69,2.69,1.2,2.69,2.69,2.69,2.69-1.2,2.69-2.69Zm-2.19,106.19v-106.19h-1.01v106.19m0,0v92.5h1.01v-92.5m-7.23,98.72H15.17s0,1.01,0,1.01h202.84v-1.01Zm-209.07-6.22v-85.11s-1.01,0-1.01,0v85.11s1.01,0,1.01,0Zm6.22,6.22c-3.44,0-6.22-2.79-6.22-6.22h-1.01c0,3.99,3.24,7.23,7.23,7.23v-1.01Zm209.07-6.22c0,3.44-2.79,6.22-6.22,6.22v1.01c3.99,0,7.23-3.24,7.23-7.23h-1.01Z"/>
  <path class="cls-6" d="m.31,97.59c0-1.49,1.2-2.69,2.69-2.69s2.69,1.2,2.69,2.69-1.2,2.69-2.69,2.69-2.69-1.2-2.69-2.69Zm3.2,106.19v92.5h-1.01v-92.55m1.01-3.96v4.01m0-103.5v99.49m-1.01-99.49v-2.69h1.01v2.69m-1.01,103.45v-103.45m7.23,202.22h202.84v1.01H9.73v-1.01Zm209.07-6.22v-85.11h1.01v85.11h-1.01Zm-6.22,6.22c3.44,0,6.22-2.79,6.22-6.22h1.01c0,3.99-3.24,7.23-7.23,7.23v-1.01Zm-209.07-6.22c0,3.44,2.79,6.22,6.22,6.22v1.01c-3.99,0-7.23-3.24-7.23-7.23h1.01Z"/>
</svg>