
<svg width="11" height="9" viewBox="0 0 11 9" fill="none" xmlns="http://www.w3.org/2000/svg">
<path d="M9.78095 0.0867128L0.780694 0.0867119C0.689571 0.0870304 0.600251 0.115037 0.522349 0.167716C0.444446 0.220395 0.380912 0.295751 0.338584 0.385674C0.296256 0.475599 0.276737 0.576684 0.282129 0.67805C0.28752 0.779417 0.317618 0.877224 0.369182 0.960947L4.86931 8.20444C5.05581 8.50477 5.50483 8.50477 5.69183 8.20444L10.192 0.960948C10.2441 0.8774 10.2746 0.779543 10.2803 0.678008C10.286 0.576473 10.2666 0.475144 10.2242 0.38503C10.1818 0.294915 10.1181 0.219462 10.04 0.166868C9.96183 0.114275 9.87224 0.0865526 9.78095 0.0867128Z" fill="white"/>
</svg>
