<svg width="auto" height="auto" viewBox="0 0 234 345" fill="none" xmlns="http://www.w3.org/2000/svg">
<path d="M3 8.37821C3 4.30334 6.30333 1 10.3782 1H202.717C206.792 1 210.095 4.30333 210.095 8.37819V326.622C210.095 330.697 206.792 334 202.717 334H10.3782C6.30332 334 3 330.697 3 326.622V8.37821Z" fill="url(#paint0_linear_59_2)"/>
<g clip-path="url(#clip0_59_2)">
<path d="M210.582 159.644L205.784 159.684L205.832 167.463L210.629 167.424L210.582 159.644Z" fill="#22FFF9"/>
<path opacity="0.64" d="M210.656 171.689L205.858 171.729L205.906 179.508L210.704 179.469L210.656 171.689Z" fill="#22FFF9"/>
<path opacity="0.4" d="M210.73 183.724L205.932 183.764L205.979 191.543L210.777 191.504L210.73 183.724Z" fill="#22FFF9"/>
<path opacity="0.34" d="M210.803 195.779L206.005 195.818L206.053 203.598L210.851 203.558L210.803 195.779Z" fill="#22FFF9"/>
<path opacity="0.22" d="M210.878 207.822L206.08 207.861L206.127 215.641L210.925 215.601L210.878 207.822Z" fill="#22FFF9"/>
<path opacity="0.15" d="M210.952 219.867L206.154 219.906L206.202 227.686L211 227.646L210.952 219.867Z" fill="#22FFF9"/>
</g>
<path d="M0.0487239 332C0.0487239 333.63 1.37006 334.951 3 334.951C4.62994 334.951 5.95128 333.63 5.95128 332C5.95128 330.37 4.62994 329.049 3 329.049C1.37006 329.049 0.0487239 330.37 0.0487239 332ZM3.55336 332V8.3782H2.44664V332H3.55336ZM10.3782 1.55336H202.717V0.446636H10.3782V1.55336ZM209.542 8.37819V148.976H210.649V8.37819H209.542ZM202.717 1.55336C206.486 1.55336 209.542 4.60894 209.542 8.37819H210.649C210.649 3.99771 207.098 0.446636 202.717 0.446636V1.55336ZM3.55336 8.3782C3.55336 4.60896 6.60894 1.55336 10.3782 1.55336V0.446636C5.99771 0.446636 2.44664 3.99773 2.44664 8.3782H3.55336Z" fill="#22FFF9"/>
<path d="M207.471 251.176C207.471 252.806 208.792 254.127 210.422 254.127C212.052 254.127 213.373 252.806 213.373 251.176C213.373 249.546 212.052 248.225 210.422 248.225C208.792 248.225 207.471 249.546 207.471 251.176ZM209.869 251.176V324.913H210.975V251.176H209.869ZM203.044 331.738H19.2388V332.845H203.044V331.738ZM209.869 324.913C209.869 328.682 206.813 331.738 203.044 331.738V332.845C207.424 332.845 210.975 329.293 210.975 324.913H209.869Z" fill="#22FFF9"/>
<defs>
<linearGradient id="paint0_linear_59_2" x1="94.8792" y1="9" x2="133.114" y2="190.498" gradientUnits="userSpaceOnUse">
<stop stop-color="#60FFF5"/>
<stop offset="1" stop-opacity="0"/>
</linearGradient>
<clipPath id="clip0_59_2">
<rect width="4.79807" height="68.0031" fill="white" transform="matrix(-0.999966 0.00821273 -0.00614986 -0.999981 211 227.646)"/>
</clipPath>
</defs>
</svg>
